<svg width="914" height="732" fill="none" xmlns="http://www.w3.org/2000/svg"><path d="m248.5 723.32-8 8H1V.32h912c-.5.667-2.6 3.1-7 7.5s-13.833 18.5-18 25c-3.413 5.2-13.089 34.833-17.5 49l-8.5-2.5-3.5 2.5-2.5 3v-3l-2.5 1v3.5l-3 3-.5-3.5-3 1.5 1 4.5-3 4-.5-5-2.5 2 .5 5-1.5 1.5-.5-4.5h-2v7.5l-1 1-1-4.5-2 .5 1 6-4 4-1-4.5-1 .5v6.5l-1.5 2.5-1-5-2.5 1.5 2 6.5-3 5-1-8H820v4.5l-1.5-.5-2 .5 1 10.5-5.5 6-1-10.5-3.5 1.5 1 12.5-9.5 9.5 1-3-1-3h-2v-5h-1l-2.5 1.5 1.5 14-4 4-.5-5v-3.5l-.5-3-1.5-1-4 1 1.5 17-25.5 26-1-8.5v-5H758l-.5-4h-4l-3 1.5 2.5 23.5-45 46.5-2-9.5-3.5-15H696l-5.5 3 6.5 33.5-38 37-3.5-13 1-1 1-1.5v-4l-2-3.5H654l-1-7.5h-9l-5.5 5 5 41.5-45 47.5-186.5 197-109 114-20.5-85H258l-38 30 28.5 112.5Z" fill="url('#paint0_radial_11_20')" stroke="#3D3D3D" stroke-width=".1"/><defs><radialGradient id="paint0_radial_11_20" cx="0" cy="0" r="1" gradientUnits="userSpaceOnUse" gradientTransform="matrix(325.49953 -546.00021 681.19338 406.09531 457 323.82)"><stop stop-color="#3D3D3D" stop-opacity="0"/><stop offset=".76" stop-color="#3D3D3D"/></radialGradient></defs></svg>