<svg width="914" height="739" fill="none" xmlns="http://www.w3.org/2000/svg"><path d="m665.5 730.564 8 8.077H913v-738H1c.5.673 2.6 3.13 7 7.571 4.4 4.443 13.833 18.678 18 25.24 3.413 5.25 13.089 35.167 17.5 49.47l8.5-2.525 3.5 2.524L58 85.95V82.92l2.5 1.01v3.533l3 3.029.5-3.534 3 1.515-1 4.543 3 4.038.5-5.048 2.5 2.02-.5 5.047 1.5 1.515.5-4.543h2v7.571l1 1.01 1-4.543 2 .505-1 6.057 4 4.038 1-4.543 1 .505v6.562l1.5 2.524 1-5.048 2.5 1.515-2 6.562 3 5.048 1-8.077H94v4.543l1.5-.504 2 .504-1 10.601 5.5 6.057 1-10.6 3.5 1.514-1 12.62 9.5 9.591-1-3.029 1-3.029h2v-5.047h1l2.5 1.514-1.5 14.134 4 4.038.5-5.048v-3.533l.5-3.029 1.5-1.009 4 1.009-1.5 17.163 25.5 26.249 1-8.581v-5.048h1.5l.5-4.039h4l3 1.515-2.5 23.725 45 46.945 2-9.591 3.5-15.144h6.5l5.5 3.029-6.5 33.821 38 37.354 3.5-13.124-1-1.01-1-1.514v-4.038l2-3.534h1.5l1-7.572h9l5.5 5.048-5 41.897 45 47.955L502 557.422l109 115.091 20.5-85.814H656l38 30.288-28.5 113.577Z" fill="url('#paint0_radial_42_41')" stroke="#3D3D3D" stroke-width=".1"/><defs><radialGradient id="paint0_radial_42_41" cx="0" cy="0" r="1" gradientUnits="userSpaceOnUse" gradientTransform="rotate(-120.562 321.899 33.184) scale(640.159 795.026)"><stop stop-color="#3D3D3D" stop-opacity="0"/><stop offset=".76" stop-color="#3D3D3D"/></radialGradient></defs></svg>